<svg width="42" height="42" viewBox="0 0 42 42" fill="none" xmlns="http://www.w3.org/2000/svg">
<path fill-rule="evenodd" clip-rule="evenodd" d="M7.875 35.4375C7.5269 35.4375 7.19306 35.2992 6.94692 35.0531C6.70078 34.8069 6.5625 34.4731 6.5625 34.125V7.875C6.5625 7.5269 6.70078 7.19306 6.94692 6.94692C7.19306 6.70078 7.5269 6.5625 7.875 6.5625H32.1562C32.6784 6.5625 33.1792 6.35508 33.5484 5.98587C33.9176 5.61665 34.125 5.11589 34.125 4.59375C34.125 4.07161 33.9176 3.57085 33.5484 3.20163C33.1792 2.83242 32.6784 2.625 32.1562 2.625H7.875C6.48261 2.625 5.14726 3.17812 4.16269 4.16269C3.17812 5.14726 2.625 6.48261 2.625 7.875V34.125C2.625 35.5174 3.17812 36.8527 4.16269 37.8373C5.14726 38.8219 6.48261 39.375 7.875 39.375H34.125C35.5174 39.375 36.8527 38.8219 37.8373 37.8373C38.8219 36.8527 39.375 35.5174 39.375 34.125V25.5938C39.375 25.0716 39.1676 24.5708 38.7984 24.2016C38.4292 23.8324 37.9284 23.625 37.4062 23.625C36.8841 23.625 36.3833 23.8324 36.0141 24.2016C35.6449 24.5708 35.4375 25.0716 35.4375 25.5938V34.125C35.4375 34.4731 35.2992 34.8069 35.0531 35.0531C34.8069 35.2992 34.4731 35.4375 34.125 35.4375H7.875ZM41.4225 12.285C41.7703 11.9118 41.9596 11.4182 41.9506 10.9081C41.9416 10.3981 41.735 9.91145 41.3743 9.55074C41.0135 9.19003 40.5269 8.98341 40.0169 8.97442C39.5068 8.96542 39.0132 9.15474 38.64 9.5025L24.0502 24.0896L19.1336 19.0076C18.9542 18.8202 18.7396 18.6701 18.502 18.5659C18.2644 18.4617 18.0085 18.4054 17.7491 18.4005C17.4897 18.3955 17.2319 18.4418 16.9905 18.5368C16.7491 18.6318 16.5288 18.7735 16.3423 18.9539C16.1559 19.1343 16.0069 19.3498 15.904 19.588C15.8011 19.8262 15.7463 20.0823 15.7427 20.3417C15.7391 20.6011 15.7869 20.8587 15.8832 21.0996C15.9795 21.3405 16.1225 21.56 16.3039 21.7455L22.6118 28.266C22.7932 28.4542 23.0104 28.6044 23.2506 28.7078C23.4908 28.8112 23.7491 28.8657 24.0106 28.8682C24.2721 28.8706 24.5314 28.8209 24.7735 28.7221C25.0156 28.6232 25.2355 28.4771 25.4205 28.2922L41.4225 12.285Z" fill="#6482AD"/>
</svg>
