<svg width="156" height="42" viewBox="0 0 156 42" fill="none" xmlns="http://www.w3.org/2000/svg">
<path fill-rule="evenodd" clip-rule="evenodd" d="M7.875 35.4375C7.5269 35.4375 7.19306 35.2992 6.94692 35.0531C6.70078 34.8069 6.5625 34.4731 6.5625 34.125V7.875C6.5625 7.5269 6.70078 7.19306 6.94692 6.94692C7.19306 6.70078 7.5269 6.5625 7.875 6.5625H32.1562C32.6784 6.5625 33.1792 6.35508 33.5484 5.98587C33.9176 5.61665 34.125 5.11589 34.125 4.59375C34.125 4.07161 33.9176 3.57085 33.5484 3.20163C33.1792 2.83242 32.6784 2.625 32.1562 2.625H7.875C6.48261 2.625 5.14726 3.17812 4.16269 4.16269C3.17812 5.14726 2.625 6.48261 2.625 7.875V34.125C2.625 35.5174 3.17812 36.8527 4.16269 37.8373C5.14726 38.8219 6.48261 39.375 7.875 39.375H34.125C35.5174 39.375 36.8527 38.8219 37.8373 37.8373C38.8219 36.8527 39.375 35.5174 39.375 34.125V25.5938C39.375 25.0716 39.1676 24.5708 38.7984 24.2016C38.4292 23.8324 37.9284 23.625 37.4062 23.625C36.8841 23.625 36.3833 23.8324 36.0141 24.2016C35.6449 24.5708 35.4375 25.0716 35.4375 25.5938V34.125C35.4375 34.4731 35.2992 34.8069 35.0531 35.0531C34.8069 35.2992 34.4731 35.4375 34.125 35.4375H7.875ZM41.4225 12.285C41.7703 11.9118 41.9596 11.4182 41.9506 10.9081C41.9416 10.3981 41.735 9.91145 41.3743 9.55074C41.0135 9.19003 40.5269 8.98341 40.0169 8.97442C39.5068 8.96542 39.0132 9.15474 38.64 9.5025L24.0502 24.0896L19.1336 19.0076C18.9542 18.8202 18.7396 18.6701 18.502 18.5659C18.2644 18.4617 18.0085 18.4054 17.7491 18.4005C17.4897 18.3955 17.2319 18.4418 16.9905 18.5368C16.7491 18.6318 16.5288 18.7735 16.3423 18.9539C16.1559 19.1343 16.0069 19.3498 15.904 19.588C15.8011 19.8262 15.7463 20.0823 15.7427 20.3417C15.7391 20.6011 15.7869 20.8587 15.8832 21.0996C15.9795 21.3405 16.1225 21.56 16.3039 21.7455L22.6118 28.266C22.7932 28.4542 23.0104 28.6044 23.2506 28.7078C23.4908 28.8112 23.7491 28.8657 24.0106 28.8682C24.2721 28.8706 24.5314 28.8209 24.7735 28.7221C25.0156 28.6232 25.2355 28.4771 25.4205 28.2922L41.4225 12.285Z" fill="white"/>
<path d="M54.5246 12.9826V8.54545H75.4302V12.9826H67.6372V34H62.3176V12.9826H54.5246ZM101.102 21.2727C101.102 24.0485 100.576 26.41 99.5237 28.3572C98.4797 30.3045 97.0545 31.7918 95.2482 32.8192C93.4501 33.8384 91.4283 34.348 89.1828 34.348C86.9208 34.348 84.8907 33.8343 83.0926 32.8068C81.2946 31.7794 79.8735 30.292 78.8295 28.3448C77.7855 26.3976 77.2634 24.0402 77.2634 21.2727C77.2634 18.4969 77.7855 16.1354 78.8295 14.1882C79.8735 12.241 81.2946 10.7578 83.0926 9.73864C84.8907 8.71117 86.9208 8.19744 89.1828 8.19744C91.4283 8.19744 93.4501 8.71117 95.2482 9.73864C97.0545 10.7578 98.4797 12.241 99.5237 14.1882C100.576 16.1354 101.102 18.4969 101.102 21.2727ZM95.6459 21.2727C95.6459 19.4747 95.3766 17.9583 94.838 16.7237C94.3077 15.4891 93.5578 14.5528 92.5884 13.9148C91.6189 13.2768 90.4837 12.9577 89.1828 12.9577C87.8819 12.9577 86.7468 13.2768 85.7773 13.9148C84.8078 14.5528 84.0538 15.4891 83.5152 16.7237C82.9849 17.9583 82.7198 19.4747 82.7198 21.2727C82.7198 23.0708 82.9849 24.5871 83.5152 25.8217C84.0538 27.0563 84.8078 27.9927 85.7773 28.6307C86.7468 29.2687 87.8819 29.5877 89.1828 29.5877C90.4837 29.5877 91.6189 29.2687 92.5884 28.6307C93.5578 27.9927 94.3077 27.0563 94.838 25.8217C95.3766 24.5871 95.6459 23.0708 95.6459 21.2727ZM114.112 34H105.089V8.54545H114.187C116.747 8.54545 118.951 9.05504 120.799 10.0742C122.647 11.0851 124.068 12.5393 125.062 14.4368C126.065 16.3343 126.566 18.6046 126.566 21.2479C126.566 23.8994 126.065 26.178 125.062 28.0838C124.068 29.9896 122.639 31.4521 120.774 32.4712C118.918 33.4904 116.697 34 114.112 34ZM110.471 29.3888H113.889C115.479 29.3888 116.818 29.1071 117.903 28.5437C118.997 27.9719 119.817 27.0895 120.364 25.8963C120.919 24.6948 121.197 23.1454 121.197 21.2479C121.197 19.367 120.919 17.8299 120.364 16.6367C119.817 15.4435 119.001 14.5652 117.916 14.0018C116.83 13.4383 115.492 13.1566 113.901 13.1566H110.471V29.3888ZM153.944 21.2727C153.944 24.0485 153.418 26.41 152.366 28.3572C151.322 30.3045 149.896 31.7918 148.09 32.8192C146.292 33.8384 144.27 34.348 142.025 34.348C139.763 34.348 137.732 33.8343 135.934 32.8068C134.136 31.7794 132.715 30.292 131.671 28.3448C130.627 26.3976 130.105 24.0402 130.105 21.2727C130.105 18.4969 130.627 16.1354 131.671 14.1882C132.715 12.241 134.136 10.7578 135.934 9.73864C137.732 8.71117 139.763 8.19744 142.025 8.19744C144.27 8.19744 146.292 8.71117 148.09 9.73864C149.896 10.7578 151.322 12.241 152.366 14.1882C153.418 16.1354 153.944 18.4969 153.944 21.2727ZM148.488 21.2727C148.488 19.4747 148.218 17.9583 147.68 16.7237C147.15 15.4891 146.4 14.5528 145.43 13.9148C144.461 13.2768 143.326 12.9577 142.025 12.9577C140.724 12.9577 139.589 13.2768 138.619 13.9148C137.65 14.5528 136.896 15.4891 136.357 16.7237C135.827 17.9583 135.562 19.4747 135.562 21.2727C135.562 23.0708 135.827 24.5871 136.357 25.8217C136.896 27.0563 137.65 27.9927 138.619 28.6307C139.589 29.2687 140.724 29.5877 142.025 29.5877C143.326 29.5877 144.461 29.2687 145.43 28.6307C146.4 27.9927 147.15 27.0563 147.68 25.8217C148.218 24.5871 148.488 23.0708 148.488 21.2727Z" fill="white"/>
</svg>
