<svg width="132" height="36" viewBox="0 0 132 36" fill="none" xmlns="http://www.w3.org/2000/svg">
<path fill-rule="evenodd" clip-rule="evenodd" d="M7.5 9.375C6.40598 9.375 5.35677 9.8096 4.58318 10.5832C3.8096 11.3568 3.375 12.406 3.375 13.5V27C3.375 28.094 3.8096 29.1432 4.58318 29.9168C5.35677 30.6904 6.40598 31.125 7.5 31.125H28.5C29.594 31.125 30.6432 30.6904 31.4168 29.9168C32.1904 29.1432 32.625 28.094 32.625 27V13.5C32.625 12.406 32.1904 11.3568 31.4168 10.5832C30.6432 9.8096 29.594 9.375 28.5 9.375H7.5ZM24.75 18.375C24.2527 18.375 23.7758 18.5725 23.4242 18.9242C23.0725 19.2758 22.875 19.7527 22.875 20.25C22.875 20.7473 23.0725 21.2242 23.4242 21.5758C23.7758 21.9275 24.2527 22.125 24.75 22.125C25.2473 22.125 25.7242 21.9275 26.0758 21.5758C26.4275 21.2242 26.625 20.7473 26.625 20.25C26.625 19.7527 26.4275 19.2758 26.0758 18.9242C25.7242 18.5725 25.2473 18.375 24.75 18.375Z" fill="black"/>
<path d="M24.7275 4.60361C25.1716 4.48525 25.637 4.47053 26.0877 4.56057C26.5384 4.65061 26.9624 4.84301 27.327 5.12292C27.6915 5.40282 27.9869 5.76275 28.1903 6.17492C28.3937 6.58709 28.4996 7.04049 28.5 7.50011H13.5L24.7275 4.60361Z" fill="black"/>
<path d="M43.321 25V14.0909H45.7784V15.9446H45.9062C46.1335 15.3196 46.5099 14.8319 47.0355 14.4815C47.5611 14.1264 48.1884 13.9489 48.9176 13.9489C49.6562 13.9489 50.2789 14.1288 50.7855 14.4886C51.2969 14.8437 51.6567 15.3291 51.8651 15.9446H51.9787C52.2202 15.3385 52.6274 14.8556 53.2003 14.4957C53.7779 14.1312 54.4621 13.9489 55.2528 13.9489C56.2566 13.9489 57.0758 14.2661 57.7102 14.9006C58.3447 15.535 58.6619 16.4607 58.6619 17.6776V25H56.0838V18.0753C56.0838 17.3982 55.9039 16.9034 55.544 16.5909C55.1842 16.2737 54.7438 16.1151 54.223 16.1151C53.6027 16.1151 53.1174 16.3092 52.767 16.6974C52.4214 17.081 52.2486 17.5805 52.2486 18.196V25H49.7273V17.9688C49.7273 17.4053 49.5568 16.9555 49.2159 16.6193C48.8797 16.2831 48.4394 16.1151 47.8949 16.1151C47.5256 16.1151 47.1894 16.2098 46.8864 16.3991C46.5833 16.5838 46.3419 16.8466 46.1619 17.1875C45.982 17.5237 45.892 17.9167 45.892 18.3665V25H43.321ZM62.4776 29.0909C62.1272 29.0909 61.8029 29.0625 61.5046 29.0057C61.2111 28.9536 60.9767 28.892 60.8015 28.821L61.3981 26.8182C61.7721 26.9271 62.1059 26.9792 62.3995 26.9744C62.6931 26.9697 62.9511 26.8774 63.1737 26.6974C63.4009 26.5223 63.5927 26.2287 63.7489 25.8168L63.9691 25.2273L60.0131 14.0909H62.7404L65.2546 22.3295H65.3683L67.8896 14.0909H70.6239L66.256 26.321C66.0524 26.8987 65.7826 27.3935 65.4464 27.8054C65.1102 28.2221 64.6983 28.5393 64.2106 28.7571C63.7276 28.9796 63.15 29.0909 62.4776 29.0909ZM72.4031 29.0909V14.0909H74.9315V15.8949H75.0806C75.2132 15.6297 75.4002 15.348 75.6417 15.0497C75.8832 14.7467 76.2099 14.4886 76.6218 14.2756C77.0337 14.0578 77.5593 13.9489 78.1985 13.9489C79.0413 13.9489 79.8013 14.1643 80.4783 14.5952C81.1602 15.0213 81.6999 15.6534 82.0977 16.4915C82.5001 17.3248 82.7013 18.3475 82.7013 19.5597C82.7013 20.7576 82.5049 21.7756 82.1119 22.6136C81.7189 23.4517 81.1838 24.0909 80.5067 24.5312C79.8297 24.9716 79.0626 25.1918 78.2056 25.1918C77.5806 25.1918 77.0621 25.0876 76.6502 24.8793C76.2383 24.6709 75.9068 24.42 75.6559 24.1264C75.4097 23.8281 75.2179 23.5464 75.0806 23.2812H74.9741V29.0909H72.4031ZM74.9244 19.5455C74.9244 20.2509 75.0238 20.8688 75.2227 21.3991C75.4263 21.9295 75.7174 22.3437 76.0962 22.642C76.4798 22.9356 76.9438 23.0824 77.4883 23.0824C78.0565 23.0824 78.5323 22.9309 78.9158 22.6278C79.2994 22.3201 79.5882 21.901 79.7823 21.3707C79.9812 20.8357 80.0806 20.2273 80.0806 19.5455C80.0806 18.8684 79.9835 18.267 79.7894 17.7415C79.5953 17.2159 79.3065 16.804 78.9229 16.5057C78.5394 16.2074 78.0612 16.0582 77.4883 16.0582C76.939 16.0582 76.4727 16.2027 76.0891 16.4915C75.7056 16.7803 75.4144 17.1851 75.2156 17.706C75.0214 18.2268 74.9244 18.84 74.9244 19.5455ZM89.6616 25.2131C88.5962 25.2131 87.6729 24.9787 86.8917 24.5099C86.1104 24.0412 85.5044 23.3854 85.0735 22.5426C84.6474 21.6998 84.4343 20.715 84.4343 19.5881C84.4343 18.4612 84.6474 17.474 85.0735 16.6264C85.5044 15.7789 86.1104 15.1207 86.8917 14.652C87.6729 14.1832 88.5962 13.9489 89.6616 13.9489C90.7269 13.9489 91.6502 14.1832 92.4315 14.652C93.2127 15.1207 93.8164 15.7789 94.2425 16.6264C94.6734 17.474 94.8888 18.4612 94.8888 19.5881C94.8888 20.715 94.6734 21.6998 94.2425 22.5426C93.8164 23.3854 93.2127 24.0412 92.4315 24.5099C91.6502 24.9787 90.7269 25.2131 89.6616 25.2131ZM89.6758 23.1534C90.2534 23.1534 90.7364 22.9948 91.1246 22.6776C91.5129 22.3556 91.8017 21.9247 91.9911 21.3849C92.1853 20.8452 92.2823 20.2438 92.2823 19.581C92.2823 18.9134 92.1853 18.3097 91.9911 17.7699C91.8017 17.2254 91.5129 16.7921 91.1246 16.4702C90.7364 16.1482 90.2534 15.9872 89.6758 15.9872C89.0839 15.9872 88.5915 16.1482 88.1985 16.4702C87.8103 16.7921 87.5191 17.2254 87.3249 17.7699C87.1355 18.3097 87.0408 18.9134 87.0408 19.581C87.0408 20.2438 87.1355 20.8452 87.3249 21.3849C87.5191 21.9247 87.8103 22.3556 88.1985 22.6776C88.5915 22.9948 89.0839 23.1534 89.6758 23.1534ZM104.024 20.4119V14.0909H106.595V25H104.102V23.0611H103.989C103.742 23.6719 103.338 24.1714 102.774 24.5597C102.215 24.9479 101.527 25.142 100.707 25.142C99.9924 25.142 99.3603 24.9834 98.8111 24.6662C98.2666 24.3442 97.8404 23.8778 97.5327 23.267C97.2249 22.6515 97.071 21.9081 97.071 21.0369V14.0909H99.642V20.6392C99.642 21.3305 99.8314 21.8797 100.21 22.2869C100.589 22.6941 101.086 22.8977 101.702 22.8977C102.08 22.8977 102.447 22.8054 102.803 22.6207C103.158 22.4361 103.449 22.1615 103.676 21.7969C103.908 21.4276 104.024 20.9659 104.024 20.4119ZM113.998 25.2131C112.908 25.2131 111.973 24.974 111.192 24.4957C110.416 24.0175 109.817 23.357 109.395 22.5142C108.979 21.6667 108.77 20.6913 108.77 19.5881C108.77 18.4801 108.983 17.5024 109.409 16.6548C109.836 15.8026 110.437 15.1397 111.213 14.6662C111.995 14.188 112.918 13.9489 113.983 13.9489C114.869 13.9489 115.652 14.1122 116.334 14.4389C117.021 14.7609 117.568 15.2178 117.975 15.8097C118.382 16.3968 118.614 17.0833 118.671 17.8693H116.213C116.114 17.3437 115.877 16.9058 115.503 16.5554C115.134 16.2003 114.639 16.0227 114.019 16.0227C113.493 16.0227 113.032 16.1648 112.634 16.4489C112.236 16.7282 111.926 17.1307 111.703 17.6562C111.486 18.1818 111.377 18.8116 111.377 19.5455C111.377 20.2888 111.486 20.928 111.703 21.4631C111.921 21.9934 112.227 22.4029 112.62 22.6918C113.017 22.9759 113.484 23.1179 114.019 23.1179C114.398 23.1179 114.736 23.0469 115.034 22.9048C115.337 22.758 115.591 22.5473 115.794 22.2727C115.998 21.9981 116.138 21.6643 116.213 21.2713H118.671C118.609 22.0431 118.382 22.7273 117.989 23.3239C117.596 23.9157 117.061 24.3797 116.384 24.7159C115.707 25.0473 114.911 25.2131 113.998 25.2131ZM123.353 18.608V25H120.782V10.4545H123.296V15.9446H123.424C123.68 15.3291 124.075 14.8437 124.61 14.4886C125.15 14.1288 125.836 13.9489 126.67 13.9489C127.427 13.9489 128.088 14.1075 128.651 14.4247C129.215 14.742 129.65 15.206 129.958 15.8168C130.271 16.4276 130.427 17.1733 130.427 18.054V25H127.856V18.4517C127.856 17.7178 127.666 17.1473 127.288 16.7401C126.914 16.3281 126.388 16.1222 125.711 16.1222C125.256 16.1222 124.849 16.2216 124.489 16.4205C124.134 16.6146 123.855 16.8963 123.651 17.2656C123.452 17.6349 123.353 18.0824 123.353 18.608Z" fill="black"/>
</svg>
